<svg xmlns="http://www.w3.org/2000/svg" width="1120" height="650" viewBox="0 0 1120 650" role="img">
<title>Decode throughput (higher is better)</title>
<desc>Full 40-layer BF16 decoder, H800, batch 1. Prepared GPU events include model, logits, greedy sampling, metadata and token feedback. Not serving latency.</desc>
<rect width="100%" height="100%" fill="white"/>
<g font-family="sans-serif" fill="#243343">
<text x="85" y="36" font-size="24">Decode throughput (higher is better)</text>
<text x="85" y="63" font-size="14">Qwen3.5-35B-A3B BF16 / H800 / batch 1 / 32 decode tokens</text>
<text x="85" y="86" font-size="14">Prepared GPU events: full decoder + greedy sampler + metadata/token feedback</text>
<text x="85" y="108" font-size="14">Native: 3 graphs. FlagMega: 1 graph. No prefix work or CPU scheduling.</text>
<path d="M 85 490.0 H 1085" stroke="#e2e8ef"/>
<text x="73" y="495.0" text-anchor="end" font-size="13">0.0</text>
<path d="M 85 419.0 H 1085" stroke="#e2e8ef"/>
<text x="73" y="424.0" text-anchor="end" font-size="13">57.7</text>
<path d="M 85 348.0 H 1085" stroke="#e2e8ef"/>
<text x="73" y="353.0" text-anchor="end" font-size="13">115.4</text>
<path d="M 85 277.0 H 1085" stroke="#e2e8ef"/>
<text x="73" y="282.0" text-anchor="end" font-size="13">173.1</text>
<path d="M 85 206.0 H 1085" stroke="#e2e8ef"/>
<text x="73" y="211.0" text-anchor="end" font-size="13">230.8</text>
<path d="M 85 135.0 H 1085" stroke="#e2e8ef"/>
<text x="73" y="140.0" text-anchor="end" font-size="13">288.4</text>
<rect x="115.0" y="202.5" width="55.0" height="287.5" fill="#536579"/>
<text x="142.5" y="194.5" text-anchor="middle" font-size="13">233.601</text>
<rect x="178.2" y="334.7" width="55.0" height="155.3" fill="#c47725"/>
<text x="205.8" y="326.7" text-anchor="middle" font-size="13">126.204</text>
<rect x="241.5" y="194.2" width="55.0" height="295.8" fill="#16836c"/>
<text x="269.0" y="186.2" text-anchor="middle" font-size="13">240.367</text>
<text x="210.0" y="519" text-anchor="middle" font-size="14">Context 1</text>
<rect x="365.0" y="202.6" width="55.0" height="287.4" fill="#536579"/>
<text x="392.5" y="194.6" text-anchor="middle" font-size="13">233.492</text>
<rect x="428.2" y="334.7" width="55.0" height="155.3" fill="#c47725"/>
<text x="455.8" y="326.7" text-anchor="middle" font-size="13">126.181</text>
<rect x="491.5" y="194.6" width="55.0" height="295.4" fill="#16836c"/>
<text x="519.0" y="186.6" text-anchor="middle" font-size="13">240.000</text>
<text x="460.0" y="519" text-anchor="middle" font-size="14">Context 32</text>
<rect x="615.0" y="203.3" width="55.0" height="286.7" fill="#536579"/>
<text x="642.5" y="195.3" text-anchor="middle" font-size="13">232.973</text>
<rect x="678.2" y="336.1" width="55.0" height="153.9" fill="#c47725"/>
<text x="705.8" y="328.1" text-anchor="middle" font-size="13">125.085</text>
<rect x="741.5" y="197.1" width="55.0" height="292.9" fill="#16836c"/>
<text x="769.0" y="189.1" text-anchor="middle" font-size="13">237.997</text>
<text x="710.0" y="519" text-anchor="middle" font-size="14">Context 255</text>
<rect x="865.0" y="203.3" width="55.0" height="286.7" fill="#536579"/>
<text x="892.5" y="195.3" text-anchor="middle" font-size="13">232.955</text>
<rect x="928.2" y="336.1" width="55.0" height="153.9" fill="#c47725"/>
<text x="955.8" y="328.1" text-anchor="middle" font-size="13">125.028</text>
<rect x="991.5" y="197.4" width="55.0" height="292.6" fill="#16836c"/>
<text x="1019.0" y="189.4" text-anchor="middle" font-size="13">237.733</text>
<text x="960.0" y="519" text-anchor="middle" font-size="14">Context 256</text>
<text x="15" y="123" font-size="13">tokens/s</text>
<rect x="85" y="555" width="15" height="15" fill="#536579"/>
<text x="108" y="568" font-size="14">Native vLLM</text>
<rect x="395" y="555" width="15" height="15" fill="#c47725"/>
<text x="418" y="568" font-size="14">FlagMega default</text>
<rect x="705" y="555" width="15" height="15" fill="#16836c"/>
<text x="728" y="568" font-size="14">FlagMega + agent</text>
<text x="85" y="610" font-size="13">1000 / mean per-token latency. Complete independent greedy sequences match in every measured round.</text>
</g>
</svg>
